<svg width="64" height="64" viewBox="0 0 16.933 16.933" xmlns="http://www.w3.org/2000/svg"><rect x="1.587" y="1.587" width="13.758" height="13.758" rx="2.117" ry="2.117" fill="#f2f2f2"/><rect x="2.91" y="2.91" width="11.112" height="11.112" rx=".794" ry=".794" opacity=".1"/><g aria-label="*Rua*" style="line-height:1.25" font-size="3.175" stroke-width=".265"><path d="m 4.1341749,12.853775 -0.257175,-0.2032 0.155575,-0.187325 q 0.060325,-0.06668 0.1397,-0.13335 0.079375,-0.06985 0.161925,-0.127 0.08255,-0.05715 0.1397,-0.09525 l -0.00318,-0.01905 q -0.066675,0 -0.15875,-0.0063 -0.0889,-0.0095 -0.180975,-0.02223 -0.0889,-0.01587 -0.161925,-0.04445 l -0.19685,-0.0762 0.17145,-0.33655 0.200025,0.0762 q 0.10795,0.04128 0.219075,0.130175 0.111125,0.08573 0.180975,0.149225 l 0.015875,-0.0127 q -0.00953,-0.0635 -0.022225,-0.1524 -0.00953,-0.09207 -0.015875,-0.1905 -0.00318,-0.09842 0.00953,-0.180975 l 0.0381,-0.2286 h 0.3556 l -0.034925,0.2286 q -0.0127,0.08255 -0.0508,0.180975 -0.034925,0.09843 -0.0762,0.1905 -0.041275,0.0889 -0.073025,0.1524 l 0.0127,0.0095 q 0.060325,-0.04127 0.142875,-0.09525 0.08255,-0.05397 0.17145,-0.1016 0.0889,-0.0508 0.168275,-0.07938 l 0.2286,-0.0762 0.06985,0.33655 -0.225425,0.0762 q -0.12065,0.04128 -0.269875,0.05715 -0.149225,0.0127 -0.250825,0.01587 l -0.00953,0.01905 q 0.06985,0.05715 0.168275,0.155575 0.1016,0.09842 0.155575,0.200025 l 0.1016,0.187325 -0.32385,0.2032 -0.1016,-0.187325 q -0.0381,-0.06668 -0.0635,-0.155575 -0.0254,-0.09208 -0.041275,-0.180975 -0.015875,-0.0889 -0.0254,-0.149225 h -0.01905 q -0.028575,0.06032 -0.073025,0.149225 -0.04445,0.0889 -0.098425,0.180975 -0.053975,0.0889 -0.1143,0.155575 z" fill="#0078d6"/><path d="M5.6296011 13.13l.3683-2.31775h.733425q.2317749 0 .3873499.08573.15875.08573.225425.2413.06985.1524.0381.36195-.0381.23495-.18415.41275-.14605.174625-.3587749.2413L7.156776 13.13H6.7345011l-.2794-.92075H6.1725261L6.0264761 13.13zm.5969-1.27h.339725q.1651 0 .276225-.09207.1111249-.09207.1365249-.254Q7.004376 11.352 6.921826 11.25675 6.8424511 11.1615 6.6773511 11.1615h-.339725zM8.2394522 13.16175q-.333375 0-.4953-.18415-.15875-.187325-.10795-.508l.17145-1.08585h.396875l-.17145 1.082675q-.0254.168275.041275.26035.06985.0889.219075.0889.1524 0 .250825-.0889.098425-.09207.123825-.26035l.17145-1.082675h.396875l-.17145 1.08585q-.047625.320675-.27305.508-.225425.18415-.55245.18415zM9.9984034 13.16175q-.263525 0-.3937-.1778-.127-.180975-.0762-.48895l.073025-.473075q.0508-.307975.23495-.48895Q10.023803 11.352 10.287328 11.352q.193675 0 .29845.09842.10795.09525.104775.2667h.0064l.04445-.333375h.396875L10.862003 13.13h-.390525l.05398-.333375h-.0064q-.05397.174625-.193675.269875-.136525.09525-.3270246.09525zm.1968496-.3429q.149225 0 .24765-.0889.09843-.09208.123825-.254l.06985-.43815q.0254-.161925-.04763-.250825-.06985-.09207-.219075-.09207-.1524 0-.250825.0889-.09525.0889-.1206496.254l-.06985.43815q-.0254.1651.041275.254.06985.0889.2254246.0889z" style="-inkscape-font-specification:'JetBrains Mono Bold Italic'" font-style="italic" font-weight="700" font-family="JetBrains Mono"/><path d="m 11.75418,12.853775 -0.257175,-0.2032 0.155575,-0.187325 q 0.06032,-0.06668 0.1397,-0.13335 0.07938,-0.06985 0.161925,-0.127 0.08255,-0.05715 0.1397,-0.09525 l -0.0032,-0.01905 q -0.06668,0 -0.15875,-0.0063 -0.0889,-0.0095 -0.180975,-0.02223 -0.0889,-0.01587 -0.161925,-0.04445 l -0.19685,-0.0762 0.17145,-0.33655 0.200025,0.0762 q 0.10795,0.04128 0.219075,0.130175 0.111125,0.08573 0.180975,0.149225 l 0.01587,-0.0127 q -0.0095,-0.0635 -0.02222,-0.1524 -0.0095,-0.09207 -0.01588,-0.1905 -0.0032,-0.09842 0.0095,-0.180975 l 0.0381,-0.2286 h 0.3556 l -0.03493,0.2286 q -0.0127,0.08255 -0.0508,0.180975 -0.03492,0.09843 -0.0762,0.1905 -0.04128,0.0889 -0.07302,0.1524 l 0.0127,0.0095 q 0.06033,-0.04127 0.142875,-0.09525 0.08255,-0.05397 0.17145,-0.1016 0.0889,-0.0508 0.168275,-0.07938 l 0.2286,-0.0762 0.06985,0.33655 -0.225425,0.0762 q -0.12065,0.04128 -0.269875,0.05715 -0.149225,0.0127 -0.250825,0.01587 l -0.0095,0.01905 q 0.06985,0.05715 0.168275,0.155575 0.1016,0.09842 0.155575,0.200025 l 0.1016,0.187325 -0.32385,0.2032 -0.1016,-0.187325 q -0.0381,-0.06668 -0.0635,-0.155575 -0.0254,-0.09208 -0.04127,-0.180975 -0.01588,-0.0889 -0.0254,-0.149225 h -0.01905 q -0.02858,0.06032 -0.07302,0.149225 -0.04445,0.0889 -0.09843,0.180975 -0.05397,0.0889 -0.1143,0.155575 z" fill="#0078d6"/></g><g style="line-height:1.25"><path d="m 8.0358854,4.4432286 q -0.3224355,-0.016535 -0.4547168,-0.016535 -0.8928984,0 -1.2938759,0.372041 -0.4009775,0.372041 -0.4671181,0.6614062 -0.020669,0.1033447 -0.1116123,0.1033447 -0.041338,0 -0.078542,-0.037204 0.020669,-0.4919209 0.1612177,-1.3269462 0.1984219,-0.00413 0.2521612,-0.00413 0.3224355,0 0.8639618,0.03307 0.5828643,0.03307 1.7857968,0.03307 1.2318691,0 1.6039102,-0.028936 0.338971,-0.03307 0.930102,-0.03307 0.04961,0.2976328 0.06614,0.6200683 0.0248,0.3679072 0.04961,0.5167236 0.0041,0.03307 0.0041,0.070274 0,0.099211 -0.08681,0.099211 -0.05374,0 -0.09094,-0.03307 Q 11.136227,5.4353379 11.012213,5.2369161 10.797256,4.9020792 10.565764,4.7325938 10.334272,4.5589747 10.049041,4.5093692 9.7638091,4.4597638 8.8957135,4.4432286 8.846108,5.0674307 8.846108,5.8693858 q 0,2.6538924 0.1116123,3.1292781 0.1157461,0.4753858 0.8143564,0.4753858 0.1694854,0 0.1694854,0.070274 0,0.082676 -0.1612178,0.082676 H 7.2380641 q -0.099211,0 -0.099211,-0.078542 0,-0.078542 0.1942881,-0.078542 0.3265693,0 0.5249912,-0.1818867 0.2025556,-0.1860205 0.2314921,-0.5001885 0.03307,-0.3141679 0.03307,-1.8147333 0,-1.2814745 -0.08681,-2.5298788 z" style="-inkscape-font-specification:'Bell MT'" font-family="Bell MT" aria-label="T" font-size="8.466" stroke-width=".265"/></g></svg>