<svg width="16" height="16" fill="none" xmlns="http://www.w3.org/2000/svg"><path d="M4.99992 8C5.27607 8 5.49992 7.77614 5.49992 7.5 5.49992 7.22386 5.27607 7 4.99992 7 4.72378 7 4.49992 7.22386 4.49992 7.5 4.49992 7.77614 4.72378 8 4.99992 8zM6.49992 9.5C6.49992 9.77614 6.27607 10 5.99992 10 5.72378 10 5.49992 9.77614 5.49992 9.5 5.49992 9.22386 5.72378 9 5.99992 9 6.27607 9 6.49992 9.22386 6.49992 9.5zM7.99992 10C8.27607 10 8.49992 9.77614 8.49992 9.5 8.49992 9.22386 8.27607 9 7.99992 9 7.72378 9 7.49992 9.22386 7.49992 9.5 7.49992 9.77614 7.72378 10 7.99992 10zM10.4999 9.5C10.4999 9.77614 10.2761 10 9.99992 10 9.72378 10 9.49992 9.77614 9.49992 9.5 9.49992 9.22386 9.72378 9 9.99992 9 10.2761 9 10.4999 9.22386 10.4999 9.5zM6.99992 8C7.27607 8 7.49992 7.77614 7.49992 7.5 7.49992 7.22386 7.27607 7 6.99992 7 6.72378 7 6.49992 7.22386 6.49992 7.5 6.49992 7.77614 6.72378 8 6.99992 8zM9.49992 7.5C9.49992 7.77614 9.27607 8 8.99992 8 8.72378 8 8.49992 7.77614 8.49992 7.5 8.49992 7.22386 8.72378 7 8.99992 7 9.27607 7 9.49992 7.22386 9.49992 7.5zM10.9999 8C11.2761 8 11.4999 7.77614 11.4999 7.5 11.4999 7.22386 11.2761 7 10.9999 7 10.7238 7 10.4999 7.22386 10.4999 7.5 10.4999 7.77614 10.7238 8 10.9999 8z" fill="gray"/><path d="M3.02242 5C1.72791 5 0.774443 6.2111 1.07829 7.46944L1.80269 10.4694C2.01951 11.3674 2.82307 12 3.74681 12H12.2656C13.1889 12 13.9922 11.368 14.2095 10.4706L14.9357 7.47059C15.2404 6.21195 14.2869 5 12.9919 5H3.02242ZM2.05035 7.23472C1.89843 6.60555 2.37516 6 3.02242 6H12.9919C13.6394 6 14.1162 6.60598 13.9638 7.23529L13.2375 10.2353C13.1289 10.684 12.7273 11 12.2656 11H3.74681C3.28494 11 2.88316 10.6837 2.77475 10.2347L2.05035 7.23472Z" fill="gray"/></svg>