<svg width="16" height="16" fill="none" xmlns="http://www.w3.org/2000/svg"><path d="M12.3579 13.065C12.4291 13.7675 11.6837 14.2852 11.0431 13.9484L8.00096 12.3491 4.95879 13.9484C4.29853 14.2955 3.52684 13.7349 3.65294 12.9997L4.23394 9.61216 1.77277 7.21312C1.23861 6.69244 1.53337 5.78526 2.27156 5.678L4.62842 5.33553 1.14645 1.85355C.951184 1.65829.951184 1.34171 1.14645 1.14645 1.34171.951184 1.65829.951184 1.85355 1.14645L14.8536 14.1464C15.0488 14.3417 15.0488 14.6583 14.8536 14.8536 14.6583 15.0488 14.3417 15.0488 14.1464 14.8536L12.3579 13.065zM11.136 11.8431L5.51072 6.21782 2.61588 6.63847 4.9696 8.93277C5.18172 9.13954 5.27851 9.43744 5.22843 9.72939L4.6728 12.969 7.58215 11.4395C7.84434 11.3016 8.15758 11.3016 8.41977 11.4395L11.3291 12.969 11.136 11.8431zM13.386 6.63847L11.0434 8.92198 11.7751 9.65369 11.768 9.61216 14.2291 7.21312C14.7633 6.69244 14.4685 5.78526 13.7304 5.678L10.3291 5.18377 8.80802 2.10171C8.47789 1.43279 7.52403 1.43279 7.1939 2.10171L6.21222 4.09081 6.95888 4.83746 8.00096 2.72598 9.45564 5.67348C9.58673 5.9391 9.84014 6.12322 10.1333 6.16581L13.386 6.63847z" fill="gray"/></svg>