<svg width="16" height="16" fill="none" xmlns="http://www.w3.org/2000/svg"><path d="M11.6164 12.3235L14.1464 14.8536C14.3417 15.0488 14.6583 15.0488 14.8536 14.8536 15.0488 14.6583 15.0488 14.3417 14.8536 14.1464L1.85355 1.14645C1.65829.951184 1.34171.951184 1.14645 1.14645.951184 1.34171.951184 1.65829 1.14645 1.85355L6.38029 7.0874C5.52008 9.01667 3.63217 9.67337 2.41062 9.89532 2.25698 9.92323 2.12521 10.0213 2.05438 10.1605 1.98356 10.2997 1.98182 10.4639 2.04969 10.6046 3.01873 12.6127 5.07502 14 7.45629 14 9.07158 14 10.5378 13.3617 11.6164 12.3235zM10.9092 11.6163C10.0116 12.4735 8.79544 13 7.45629 13 5.70158 13 4.15722 12.0961 3.26465 10.727 4.52195 10.3874 6.18837 9.6113 7.12822 7.83533L10.9092 11.6163zM12.4563 7.99999C12.4563 8.68921 12.3168 9.34586 12.0646 9.94327L12.8177 10.6964C13.2262 9.88572 13.4563 8.96972 13.4563 7.99999 13.4563 4.68628 10.77 1.99999 7.45629 1.99999 7.38577 1.99999 7.31552 2.0012 7.24555 2.00362 7.09984 2.00866 6.96358 2.07705 6.87247 2.19087 6.78136 2.3047 6.74447 2.45262 6.77147 2.5959 6.89601 3.25698 6.9677 4.00688 6.91638 4.79504L7.81837 5.69703C7.97675 4.74193 7.95522 3.82551 7.85032 3.01528 10.4276 3.2162 12.4563 5.37117 12.4563 7.99999z" fill="gray"/></svg>