<svg width="256" height="64" viewBox="0 0 67.732 16.933" xmlns="http://www.w3.org/2000/svg"><rect x="1.587" y="1.587" width="13.758" height="13.758" rx="2.117" ry="2.117" fill="#f2f2f2"/><rect x="2.91" y="2.91" width="11.112" height="11.112" rx=".794" ry=".794" opacity=".1"/><g style="line-height:1.25"><path d="M21.064172 11.775297L22.101315 5.2772736H20.06936l.201079-1.2276397h5.376215l-.201079 1.2276397h-2.021372l-1.026561 6.4980234zM26.186396 13.680255l.169329-1.100642h1.725046q.92073 0 1.037144-.836065l.07408-.455073.190496-1.153558h-.03175q-.179913.571487-.634986.899563-.455073.317493-1.100643.317493-.857231 0-1.280555-.571487-.423324-.571488-.27516-1.5345498L26.588554 5.954592h1.322887l-.507989 3.1537639q-.08466.529155.148164.8148987.243411.2857434.730234.2857434.486822 0 .814898-.2963265.328077-.2963268.412741-.846648L30.006895 5.954592h1.322888l-.910147 5.820705q-.13758.888981-.804316 1.396969-.666735.507989-1.682713.507989zM31.763694 13.680255l1.227639-7.725663h1.291138l-.179912 1.1112255h.03175Q34.314221 6.483747 34.769294 6.166254 35.23495 5.848761 35.869936 5.848761q.878398 0 1.301722.6032367.423324.6032367.264577 1.6192144L37.182241 9.648094q-.158747 1.026561-.783149 1.629797-.61382.603237-1.492218.603237-.645569 0-1.005394-.317493-.349242-.328076-.338659-.899563h-.03175l-.179912 1.386386-.264578 1.629797zm2.86802-2.942102q.507989 0 .825482-.296326.328076-.296327.41274-.8466485l.232829-1.4604678q.08466-.5503213-.148164-.8466481-.222245-.2963268-.740817-.2963268-.497405 0-.825482.3069099-.328076.2963268-.423324.836065L33.73215 9.5951785q-.08466.5397385.158747.8466485.243411.296326.740817.296326zM38.409883 11.775297l1.22764-7.7256631h2.444696q.772567 0 1.291138.2857437.529155.2857437.751401.8043157.232828.5079888.126997 1.2064734-.126997.7831494-.61382 1.375803-.486823.5820706-1.19589.8043157l1.05831 3.2490116H42.092802L41.16149 8.7061981h-.941896l-.486823 3.0690989zm1.989623-4.23324h1.132392q.550321 0 .92073-.3069099.370408-.3069099.455073-.846648Q42.992366 5.848761 42.717205 5.531268 42.452628 5.213775 41.902307 5.213775h-1.132392zM47.109197 11.881128q-1.111226 0-1.650964-.61382-.529155-.624403-.359825-1.6932957L45.669895 5.954592h1.322888l-.571488 3.6088372q-.08467.5609048.13758.8678138.232829.296327.730234.296327.507989 0 .836065-.296327.328076-.306909.412741-.8678138L49.109403 5.954592h1.322887l-.571487 3.6194203q-.158747 1.0688927-.910147 1.6932957-.7514.61382-1.841459.61382zM52.972239 11.881128q-.878397 0-1.312304-.592653-.423324-.603237-.253995-1.6297979l.243411-1.5768819q.16933-1.0265608.78315-1.6297975.624403-.6032367 1.5028-.6032367.645569 0 .994812.3280761.359825.317493.349242.8889804h.02117L55.448684 5.954592h1.322888l-.92073 5.820705h-1.301721l.179913-1.111225h-.02117q-.179912.58207-.645569.899563-.455073.317493-1.090059.317493zm.656152-1.142975q.497406 0 .825482-.296326.328076-.30691.412741-.8466485l.232828-1.4604678q.08466-.5397382-.158746-.836065-.232829-.3069099-.730234-.3069099-.507989 0-.836065.2963268-.317493.2963268-.402158.8466481l-.232828 1.4604678q-.08466.5503215.13758.8466485.232828.296326.7514.296326zM59.734841 9.3094348l.370409-3.799333.232828-1.4604679h1.439301l-.232828 1.4604679-.836065 3.799333zm-.07408 2.5187782q-.328076 0-.497405-.190496-.16933-.201079-.116414-.507989.04233-.30691.27516-.497406.232828-.201079.560904-.201079h.317493q.328077 0 .497406.201079.16933.190496.116414.497406-.05292.30691-.285743.507989-.232829.190496-.560905.190496z" style="-inkscape-font-specification:'JetBrains Mono Bold Italic'" aria-label="TypRua!" font-size="10.583" stroke-width=".265" font-style="italic" font-weight="700" font-family="JetBrains Mono"/></g><g style="line-height:1.25"><path d="M 7.6600926,8.343079 Q 7.5205693,8.684136 7.2518578,9.7021393 6.9831462,10.714975 6.9831462,11.0612 q 0,0.454742 0.7544593,0.506417 0.1550259,0.01033 0.1550259,0.09302 0,0.113686 -0.1911986,0.113686 -0.1550259,0 -0.5012503,-0.02584 -0.2583765,-0.0155 -0.8629774,-0.0155 -0.5942659,0 -0.9611605,0.0155 -0.1343558,0.0052 -0.2170363,0.0052 -0.1395233,0 -0.1395233,-0.08268 0,-0.08785 0.2222038,-0.113686 0.2997167,-0.03101 0.4340725,-0.12402 Q 5.810117,11.335079 5.897965,11.12321 5.985813,10.911341 6.3217025,9.6246264 L 6.9159684,7.3147407 q 0.2583764,-1.0283384 0.2583764,-1.4107356 0,-0.2532089 -0.1498583,-0.4082348 Q 6.8797956,5.3355769 6.4457232,5.2477289 6.3217025,5.2218913 6.3217025,5.1495458 q 0,-0.093015 0.1188531,-0.093015 0.1291883,0 0.3668946,0.015503 0.2583765,0.02067 0.6097685,0.02067 l 1.8138028,-0.02067 q 1.2660445,0 1.8034675,0.4185699 0.537423,0.4237374 0.537423,1.0903487 0,0.6407737 -0.48058,1.1161864 -0.475413,0.4754127 -1.3642276,0.6459411 0.5529256,0.341057 0.6821136,0.6976165 0.134356,0.3565596 0.134356,0.7389567 0,0.1808636 -0.02584,0.3565598 -0.09818,0.713119 -0.09818,0.914652 0,0.129189 0.08268,0.222204 0.08785,0.08785 0.191198,0.08785 0.227372,0 0.645942,-0.289381 0.242873,-0.165361 0.299716,-0.165361 0.07235,0 0.07235,0.07751 0,0.07751 -0.299717,0.289381 -0.294549,0.211869 -0.671779,0.403068 -0.37723,0.191198 -0.7441241,0.191198 -0.263544,0 -0.4599101,-0.160193 -0.1911986,-0.165361 -0.1911986,-0.490916 0,-0.232538 0.093015,-0.656276 0.1188532,-0.527088 0.1188532,-0.9198201 0,-0.5942658 -0.1291882,-0.8578098 Q 9.2981994,8.518775 9.1018333,8.4257595 8.9106347,8.3275765 8.2905312,8.3275765 q -0.1550259,0 -0.6304386,0.015503 z m 0.051675,-0.2325388 q 0.2945492,0.015503 0.4444075,0.015503 0.8991501,0 1.3590603,-0.1653609 0.4650776,-0.165361 0.7337893,-0.6252711 0.268711,-0.4650776 0.268711,-0.9508254 0,-0.4805803 -0.361727,-0.7854645 -0.3617267,-0.3048842 -0.9818303,-0.3048842 -0.3307219,0 -0.7286216,0.051675 -0.00517,0.051675 -0.1911986,0.5735957 Q 8.1251702,6.2812348 7.9236366,7.0822019 7.7221029,7.8780014 7.7117679,8.1105402 Z" style="-inkscape-font-specification:'Bell MT Italic'" font-style="italic" font-family="Bell MT" aria-label="R" font-size="10.583" stroke-width=".265"/></g></svg>