<svg width="256" height="64" viewBox="0 0 67.732 16.933" xmlns="http://www.w3.org/2000/svg"><rect x="1.587" y="1.587" width="13.758" height="13.758" rx="2.117" ry="2.117" fill="#f2f2f2"/><rect x="2.91" y="2.91" width="11.112" height="11.112" rx=".794" ry=".794" opacity=".1"/><g aria-label="*Rua*" style="line-height:1.25" font-size="3.175" stroke-width=".265"><path d="m 4.1341749,12.853775 -0.257175,-0.2032 0.155575,-0.187325 q 0.060325,-0.06668 0.1397,-0.13335 0.079375,-0.06985 0.161925,-0.127 0.08255,-0.05715 0.1397,-0.09525 l -0.00318,-0.01905 q -0.066675,0 -0.15875,-0.0063 -0.0889,-0.0095 -0.180975,-0.02223 -0.0889,-0.01587 -0.161925,-0.04445 l -0.19685,-0.0762 0.17145,-0.33655 0.200025,0.0762 q 0.10795,0.04128 0.219075,0.130175 0.111125,0.08573 0.180975,0.149225 l 0.015875,-0.0127 q -0.00953,-0.0635 -0.022225,-0.1524 -0.00953,-0.09207 -0.015875,-0.1905 -0.00318,-0.09842 0.00953,-0.180975 l 0.0381,-0.2286 h 0.3556 l -0.034925,0.2286 q -0.0127,0.08255 -0.0508,0.180975 -0.034925,0.09843 -0.0762,0.1905 -0.041275,0.0889 -0.073025,0.1524 l 0.0127,0.0095 q 0.060325,-0.04127 0.142875,-0.09525 0.08255,-0.05397 0.17145,-0.1016 0.0889,-0.0508 0.168275,-0.07938 l 0.2286,-0.0762 0.06985,0.33655 -0.225425,0.0762 q -0.12065,0.04128 -0.269875,0.05715 -0.149225,0.0127 -0.250825,0.01587 l -0.00953,0.01905 q 0.06985,0.05715 0.168275,0.155575 0.1016,0.09842 0.155575,0.200025 l 0.1016,0.187325 -0.32385,0.2032 -0.1016,-0.187325 q -0.0381,-0.06668 -0.0635,-0.155575 -0.0254,-0.09208 -0.041275,-0.180975 -0.015875,-0.0889 -0.0254,-0.149225 h -0.01905 q -0.028575,0.06032 -0.073025,0.149225 -0.04445,0.0889 -0.098425,0.180975 -0.053975,0.0889 -0.1143,0.155575 z" fill="#0078d6"/><path d="m 5.6296011,13.13 0.3683,-2.31775 h 0.733425 q 0.2317749,0 0.3873499,0.08573 0.15875,0.08573 0.225425,0.2413 0.06985,0.1524 0.0381,0.36195 -0.0381,0.23495 -0.18415,0.41275 -0.14605,0.174625 -0.3587749,0.2413 L 7.156776,13.13 H 6.7345011 l -0.2794,-0.92075 H 6.1725261 L 6.0264761,13.13 Z m 0.5969,-1.27 h 0.339725 q 0.1651,0 0.276225,-0.09207 Q 6.953576,11.67586 6.978976,11.51393 7.004376,11.352 6.921826,11.25675 6.8424511,11.1615 6.6773511,11.1615 h -0.339725 z m 2.0129511,1.30175 q -0.333375,0 -0.4953,-0.18415 -0.15875,-0.187325 -0.10795,-0.508 l 0.17145,-1.08585 h 0.396875 l -0.17145,1.082675 q -0.0254,0.168275 0.041275,0.26035 0.06985,0.0889 0.219075,0.0889 0.1524,0 0.250825,-0.0889 0.098425,-0.09207 0.123825,-0.26035 l 0.17145,-1.082675 h 0.396875 l -0.17145,1.08585 q -0.047625,0.320675 -0.27305,0.508 -0.225425,0.18415 -0.55245,0.18415 z m 1.7589512,0 q -0.263525,0 -0.3937,-0.1778 -0.127,-0.180975 -0.0762,-0.48895 l 0.073025,-0.473075 q 0.0508,-0.307975 0.23495,-0.48895 Q 10.023803,11.352 10.287328,11.352 q 0.193675,0 0.29845,0.09842 0.10795,0.09525 0.104775,0.2667 h 0.0064 l 0.04445,-0.333375 h 0.396875 L 10.862003,13.13 h -0.390525 l 0.05398,-0.333375 h -0.0064 q -0.05397,0.174625 -0.193675,0.269875 -0.136525,0.09525 -0.3270246,0.09525 z m 0.1968496,-0.3429 q 0.149225,0 0.24765,-0.0889 0.09843,-0.09208 0.123825,-0.254 l 0.06985,-0.43815 q 0.0254,-0.161925 -0.04763,-0.250825 -0.06985,-0.09207 -0.219075,-0.09207 -0.1524,0 -0.250825,0.0889 -0.09525,0.0889 -0.1206496,0.254 l -0.06985,0.43815 q -0.0254,0.1651 0.041275,0.254 0.06985,0.0889 0.2254246,0.0889 z" style="-inkscape-font-specification:'JetBrains Mono Bold Italic'" font-style="italic" font-weight="700" font-family="'JetBrains Mono'"/><path d="m 11.75418,12.853775 -0.257175,-0.2032 0.155575,-0.187325 q 0.06032,-0.06668 0.1397,-0.13335 0.07938,-0.06985 0.161925,-0.127 0.08255,-0.05715 0.1397,-0.09525 l -0.0032,-0.01905 q -0.06668,0 -0.15875,-0.0063 -0.0889,-0.0095 -0.180975,-0.02223 -0.0889,-0.01587 -0.161925,-0.04445 l -0.19685,-0.0762 0.17145,-0.33655 0.200025,0.0762 q 0.10795,0.04128 0.219075,0.130175 0.111125,0.08573 0.180975,0.149225 l 0.01587,-0.0127 q -0.0095,-0.0635 -0.02222,-0.1524 -0.0095,-0.09207 -0.01588,-0.1905 -0.0032,-0.09842 0.0095,-0.180975 l 0.0381,-0.2286 h 0.3556 l -0.03493,0.2286 q -0.0127,0.08255 -0.0508,0.180975 -0.03492,0.09843 -0.0762,0.1905 -0.04128,0.0889 -0.07302,0.1524 l 0.0127,0.0095 q 0.06033,-0.04127 0.142875,-0.09525 0.08255,-0.05397 0.17145,-0.1016 0.0889,-0.0508 0.168275,-0.07938 l 0.2286,-0.0762 0.06985,0.33655 -0.225425,0.0762 q -0.12065,0.04128 -0.269875,0.05715 -0.149225,0.0127 -0.250825,0.01587 l -0.0095,0.01905 q 0.06985,0.05715 0.168275,0.155575 0.1016,0.09842 0.155575,0.200025 l 0.1016,0.187325 -0.32385,0.2032 -0.1016,-0.187325 q -0.0381,-0.06668 -0.0635,-0.155575 -0.0254,-0.09208 -0.04127,-0.180975 -0.01588,-0.0889 -0.0254,-0.149225 h -0.01905 q -0.02858,0.06032 -0.07302,0.149225 -0.04445,0.0889 -0.09843,0.180975 -0.05397,0.0889 -0.1143,0.155575 z" fill="#0078d6"/></g><g style="line-height:1.25"><path d="m 8.0358854,4.4432286 q -0.3224355,-0.016535 -0.4547168,-0.016535 -0.8928984,0 -1.2938759,0.372041 -0.4009775,0.372041 -0.4671181,0.6614062 -0.020669,0.1033447 -0.1116123,0.1033447 -0.041338,0 -0.078542,-0.037204 0.020669,-0.4919209 0.1612177,-1.3269462 0.1984219,-0.00413 0.2521612,-0.00413 0.3224355,0 0.8639618,0.03307 0.5828643,0.03307 1.7857968,0.03307 1.2318691,0 1.6039102,-0.028936 0.338971,-0.03307 0.930102,-0.03307 0.04961,0.2976328 0.06614,0.6200683 0.0248,0.3679072 0.04961,0.5167236 0.0041,0.03307 0.0041,0.070274 0,0.099211 -0.08681,0.099211 -0.05374,0 -0.09094,-0.03307 Q 11.136227,5.4353379 11.012213,5.2369161 10.797256,4.9020792 10.565764,4.7325938 10.334272,4.5589747 10.049041,4.5093692 9.7638091,4.4597638 8.8957135,4.4432286 8.846108,5.0674307 8.846108,5.8693858 q 0,2.6538924 0.1116123,3.1292781 0.1157461,0.4753858 0.8143564,0.4753858 0.1694854,0 0.1694854,0.070274 0,0.082676 -0.1612178,0.082676 H 7.2380641 q -0.099211,0 -0.099211,-0.078542 0,-0.078542 0.1942881,-0.078542 0.3265693,0 0.5249912,-0.1818867 0.2025556,-0.1860205 0.2314921,-0.5001885 0.03307,-0.3141679 0.03307,-1.8147333 0,-1.2814745 -0.086809,-2.5298786 z" style="-inkscape-font-specification:'Bell MT'" font-family="'Bell MT'" aria-label="T" font-size="8.466"/></g><g aria-label="TypRua!" style="line-height:1.25" font-size="10.583" stroke-width=".265" font-style="italic" font-weight="700" font-family="JetBrains Mono"><path d="M21.064172 11.775297L22.101315 5.2772736H20.06936l.201079-1.2276397h5.376215l-.201079 1.2276397h-2.021372l-1.026561 6.4980234zM26.186396 13.680255l.169329-1.100642h1.725046q.92073 0 1.037144-.836065l.07408-.455073.190496-1.153558h-.03175q-.179913.571487-.634986.899563-.455073.317493-1.100643.317493-.857231 0-1.280555-.571487-.423324-.571488-.27516-1.5345498L26.588554 5.954592h1.322887l-.507989 3.1537639q-.08466.529155.148164.8148987.243411.2857434.730234.2857434.486822 0 .814898-.2963265.328077-.2963268.412741-.846648L30.006895 5.954592h1.322888l-.910147 5.820705q-.13758.888981-.804316 1.396969-.666735.507989-1.682713.507989zM31.763694 13.680255l1.227639-7.725663h1.291138l-.179912 1.1112255h.03175Q34.314221 6.483747 34.769294 6.166254 35.23495 5.848761 35.869936 5.848761q.878398 0 1.301722.6032367.423324.6032367.264577 1.6192144L37.182241 9.648094q-.158747 1.026561-.783149 1.629797-.61382.603237-1.492218.603237-.645569 0-1.005394-.317493-.349242-.328076-.338659-.899563h-.03175l-.179912 1.386386-.264578 1.629797zm2.86802-2.942102q.507989 0 .825482-.296326.328076-.296327.41274-.8466485l.232829-1.4604678q.08466-.5503213-.148164-.8466481-.222245-.2963268-.740817-.2963268-.497405 0-.825482.3069099-.328076.2963268-.423324.836065L33.73215 9.5951785q-.08466.5397385.158747.8466485.243411.296326.740817.296326zM38.409883 11.775297l1.22764-7.7256631h2.444696q.772567 0 1.291138.2857437.529155.2857437.751401.8043157.232828.5079888.126997 1.2064734-.126997.7831494-.61382 1.375803-.486823.5820706-1.19589.8043157l1.05831 3.2490116H42.092802L41.16149 8.7061981h-.941896l-.486823 3.0690989zm1.989623-4.23324h1.132392q.550321 0 .92073-.3069099.370408-.3069099.455073-.846648Q42.992366 5.848761 42.717205 5.531268 42.452628 5.213775 41.902307 5.213775h-1.132392zM47.109197 11.881128q-1.111226 0-1.650964-.61382-.529155-.624403-.359825-1.6932957L45.669895 5.954592h1.322888l-.571488 3.6088372q-.08467.5609048.13758.8678138.232829.296327.730234.296327.507989 0 .836065-.296327.328076-.306909.412741-.8678138L49.109403 5.954592h1.322887l-.571487 3.6194203q-.158747 1.0688927-.910147 1.6932957-.7514.61382-1.841459.61382zM52.972239 11.881128q-.878397 0-1.312304-.592653-.423324-.603237-.253995-1.6297979l.243411-1.5768819q.16933-1.0265608.78315-1.6297975.624403-.6032367 1.5028-.6032367.645569 0 .994812.3280761.359825.317493.349242.8889804h.02117L55.448684 5.954592h1.322888l-.92073 5.820705h-1.301721l.179913-1.111225h-.02117q-.179912.58207-.645569.899563-.455073.317493-1.090059.317493zm.656152-1.142975q.497406 0 .825482-.296326.328076-.30691.412741-.8466485l.232828-1.4604678q.08466-.5397382-.158746-.836065-.232829-.3069099-.730234-.3069099-.507989 0-.836065.2963268-.317493.2963268-.402158.8466481l-.232828 1.4604678q-.08466.5503215.13758.8466485.232828.296326.7514.296326zM59.734841 9.3094348l.370409-3.799333.232828-1.4604679h1.439301l-.232828 1.4604679-.836065 3.799333zm-.07408 2.5187782q-.328076 0-.497405-.190496-.16933-.201079-.116414-.507989.04233-.30691.27516-.497406.232828-.201079.560904-.201079h.317493q.328077 0 .497406.201079.16933.190496.116414.497406-.05292.30691-.285743.507989-.232829.190496-.560905.190496z" style="-inkscape-font-specification:'JetBrains Mono Bold Italic'"/></g></svg>